<?xml version="1.0" encoding="UTF-8"?>
<svg id="Camada_1" xmlns="http://www.w3.org/2000/svg" viewBox="0 0 656.16 569.81">
  <defs>
    <style>
      .cls-1 {
        fill: #ddd431;
      }

      .cls-2 {
        fill: #1fb295;
      }

      .cls-3 {
        fill: silver;
      }

      .cls-4 {
        fill: #fcfcfc;
      }

      .cls-5 {
        fill: #fdfdfd;
      }
    </style>
  </defs>
  <path class="cls-1" d="M470.08,430.95c.09-.32.12-.67.26-.96,7.6-16.27,9.56-33.51,8.75-51.2-.69-15.02-4.84-29.12-11.21-42.7-5.9-12.59-14.96-22.75-24.15-32.86-2.04-2.24-4.58-3.85-6.96-5.67-2.47-1.88-5.39-1.5-8.2-1.36-6.18.32-12.32.16-18.4-1.02-18.7-3.63-33.94-13.16-46.49-27.3-12.04-13.58-18.45-29.63-20.31-47.46-1.54-14.82-.48-29.58,2.64-44.2,5.73-26.8,16.34-51.69,29.21-75.72,15.38-28.72,33.64-55.54,53.7-81.16,3.08-3.93,6.53-7.56,9.79-11.34,3.13-3.62,7.59-5.34,11.38-8h8c8.34,3.73,12.55,11.08,16.41,18.74,5.93,11.75,12.16,23.37,17.15,35.55,1.69,4.13,4.17,5.91,8.4,6.45,12.48,1.59,24.41,5.3,36.01,10.07,15.55,6.4,29.52,15.36,41.98,26.66.62.56,1.26,1.09,1.84,1.69,2.35,2.45,4.93,2.78,8.18,1.67,10.1-3.43,20.29-6.57,30.44-9.86,4.6-1.5,9.26-2.74,14.03-3.6,2.48-.45,4.97-.57,7.47-.39,8.35.58,13.52,5.05,15.39,13.22,1.09,4.78.83,9.63.39,14.43-1.75,19.26-4.88,38.3-8.86,57.24-6.91,32.87-16.57,64.88-28.98,96.07-11.36,28.54-24.96,55.98-40.72,82.36-15.41,25.81-32.99,50.03-52.56,72.84-13.03,15.2-26.96,29.54-41.56,43.2-16.3,15.25-33.36,29.61-51.25,43.02-17.62,13.21-35.71,25.7-54.52,37.09-12.81,7.76-25.97,14.96-39.55,21.37-5.68,2.68-10.74,2.63-16.22-.07-9.12-4.49-18.13-9.18-26.99-14.17-23.26-13.1-45.56-27.71-66.78-43.88-16.55-12.62-32.57-25.9-47.91-40.03-12.89-11.88-25.12-24.39-36.81-37.36-20.1-22.3-38.33-46.07-54.29-71.58-7.79-12.45-14.96-25.21-21.88-38.14-1.41-2.64-2.79-5.34-3.78-8.15-2.15-6.13.41-12.5,5.92-15.38,5.19-2.71,12.26-.68,15.86,4.65,3.18,4.71,5.28,10.01,7.97,15,12.91,23.96,27.66,46.7,44.34,68.23,13.6,17.55,28.36,34.05,44.15,49.6,24.26,23.89,50.25,45.72,78.19,65.22,20.66,14.42,41.97,27.73,64.15,39.67,4.34,2.34,7.74,2.18,12.03-.1,28.9-15.37,56.4-32.88,82.37-52.8,9.52-7.3,18.87-14.8,28.06-22.5,7.51-6.62,13.28-14.92,20.78-21.56,1.38-1.22,2.66-2.45,4.72-2.93-4.08-1.12-4.4-3.74-3.06-6.93.51-1.21.82-2.5,1.45-3.65Z"/>
  <path class="cls-2" d="M314.13,229.52c-.39,28.74-21.28,49.23-49.02,51.47-7.8.63-15.61.9-23.44,1.07-12.62.27-24.22,4.19-34.88,10.83-6.5,4.05-12.81,8.4-19.27,12.5-9.62,6.1-19.97,9.83-31.55,9.56-29.81-.69-55.31-29.01-47.53-61.96,1.93-8.18,6.16-15.45,10.66-22.48,4.67-7.31,8.9-14.85,12.61-22.69,2.86-6.05,4.97-12.34,6.33-18.9.91-4.4,1.8-8.82,2.99-13.14,5.02-18.15,17.17-29.71,34.44-36.04,19.66-7.2,37.25-2.63,53.19,10.25,5.18,4.19,9.7,9.09,15.02,13.15,10.18,7.76,21.57,13.11,33.27,18.03,11.7,4.91,21.98,11.8,29.3,22.49,5.34,7.79,7.99,16.4,7.88,25.85Z"/>
  <path class="cls-2" d="M331.07,329.04c7.28.92,15.14.78,22.76,2.97,11.59,3.34,15.7,10.57,10.3,23.09-3.96,9.19-10.95,16.31-18.54,22.62-3.27,2.72-3.79,5.49-2.94,9.18,5.52,24.04,34.7,34.45,53.89,16.92,3.66-3.35,5.79-7.67,7.52-12.23.77-2.02,1.39-4.12,2.33-6.06,2.56-5.26,7.48-7.54,13.3-6.33,5.11,1.06,9.03,5.63,9.4,10.95.13,1.85-.15,3.65-.61,5.44-3.93,15.15-12.97,26.4-26.29,34.36-5.93,3.54-12.3,5.97-19.19,6.71-2.97.32-4.52,1.73-6.05,4.29-10.82,18.18-26.92,28.32-48.1,27.78-20.32-.52-36.28-10.08-46.64-27.96-1.41-2.44-2.91-3.58-5.67-4.02-15.78-2.53-28.24-10.61-37.42-23.55-4.36-6.15-7.37-13.05-8.54-20.6-.81-5.22,2.56-10.95,7.44-12.9,5-2,10.56-.5,13.91,3.77,1.57,2,2.51,4.28,3.23,6.7,3.51,11.78,11.4,19.12,23.31,21.53,12.55,2.54,23.49-1.21,31.99-10.83,3.65-4.13,5.79-9.25,6.95-14.76.7-3.34,0-5.82-2.65-7.94-5.22-4.16-10.16-8.62-13.97-14.19-2.82-4.12-5.78-8.13-7.04-13.12-2.18-8.65.1-13.57,8.34-17.26,4.46-1.99,9.26-2.77,14.04-3.37,4.78-.6,9.62-.79,14.92-1.19Z"/>
  <path class="cls-2" d="M.05,223.37c-.27-19.19,4.35-37.36,12.35-54.61,4.27-9.22,9.89-17.73,18.56-23.74,11.19-7.76,23.22-8.82,34.98-2.65,18.61,9.76,30.89,25.07,35.45,45.87,2.17,9.88.38,19.54-2.92,28.97-4.78,13.67-11.89,26-21.09,37.19-5.42,6.59-11.1,12.85-18.27,17.59-4.33,2.87-8.99,5.02-13.85,6.86-13.87,5.26-26.62-.37-34.47-12.5C3.71,255.42.9,243.17.07,230.37c-.15-2.32-.02-4.66-.02-7Z"/>
  <path class="cls-2" d="M66.9,75.56c-.22-8.63,1.73-16.53,6.82-23.6,6.36-8.84,15.23-12.02,25.66-11.31,9.68.66,17.89,5.11,25.1,11.28,15.58,13.35,24.09,30.45,25.22,50.88.51,9.28-1.54,18.33-7.48,25.87-4.93,6.26-11.29,10.1-19.57,10.45-13.21.57-23.96-4.77-33.25-13.55-14.35-13.57-21.81-30.31-22.51-50.02Z"/>
  <path class="cls-2" d="M243.28,60.02c-.04,16.54-3.45,29.48-12.56,40.55-11.12,13.52-27.92,15.3-41.62,4.47-7.57-5.98-12.43-13.87-15.63-22.75-5.16-14.31-6.06-28.93-1.97-43.69,2.3-8.3,6.32-15.55,12.27-21.99,9.42-10.19,25.15-11.46,36.95-3.5,7.97,5.38,13.49,12.82,17.04,21.67,3.56,8.87,5.94,18.03,5.52,25.26Z"/>
  <path class="cls-2" d="M332.14,110.45c-.63,11.9-5.05,26.1-16.41,37.42-6.97,6.94-15.43,10.27-25.42,9.11-6.85-.79-12.18-4.45-16.69-9.24-3.42-3.64-6.03-7.97-7.68-12.77-6.99-20.35-4.1-39.44,7.74-57.16,4.62-6.91,10.87-12.3,19.08-14.61,12-3.37,23.1,1.19,30.69,12.22,6.48,9.42,8.72,20.03,8.7,35.03Z"/>
  <path class="cls-3" d="M470.08,430.95c-.23,1.48-.52,2.95-.68,4.44-.15,1.41.28,2.66,1.5,3.49,1.42.96,2.5.13,3.56-.75.63-.52,1.13-1.25,2.64-1.31-1.13,2.25-2.41,4.07-4.03,5.6-7.72,7.32-16.26,13.74-23.51,21.58-.92.99-2.05,1.69-3.38,2.04,3.65-4.68,7.31-9.35,10.96-14.04,4.38-5.63,8.08-11.66,11.08-18.14.48-1.03,1.24-1.94,1.86-2.9Z"/>
  <path class="cls-5" d="M527.13,274.45c.35,6.21-.45,12.62-2.07,18.95-3.81,14.95-18.83,23.82-34.29,17.52-3.77-1.53-7.28-3.41-10.2-6.14-5.23-4.89-10.28-9.97-15.29-15.07-2.06-2.09-1.83-2.89.76-4.62,2.63-1.76,5.4-3.31,7.9-5.23,5.25-4.04,6.81-10.77,3.91-15.99-3-5.42-9.84-7.69-16.11-4.97-3.34,1.45-6.35,3.63-9.58,5.35-8.76,4.66-17.85,8.19-28.05,7.7-6.9-.33-13.71-1.51-19.72-4.87-15.07-8.42-18.68-21.42-9.81-36.12,3.29-5.45,8.11-9.79,13.04-13.69,14.66-11.6,30.72-20.47,49.51-23.51,16.47-2.67,31.54.1,44.26,11.55,5.23,4.7,9.25,10.42,12.68,16.57,6.33,11.35,10.01,23.53,11.96,36.32.81,5.29,1.24,10.57,1.09,16.25Z"/>
  <path class="cls-5" d="M457.98,144.04c.22-15.04,4.19-26.14,13.58-35.09,5.07-4.83,10.96-6.75,17.83-5.88,4.59.58,8,3.17,10.76,6.67,4.37,5.53,6.81,11.87,6.87,18.92.11,13.37-3.65,25.25-13.69,34.69-6.06,5.7-13.15,6.8-20.89,5.13-4.37-.95-7.02-4.32-9.4-7.77-3.93-5.71-5.29-12.15-5.05-16.68Z"/>
  <path class="cls-5" d="M515.15,175.06c-.19-10.44,4.71-18.83,11.01-26.58,4.17-5.13,9.44-8.84,15.59-11.3,4.75-1.9,9.6-2.8,14.64-1.49,9.58,2.49,15.78,11.63,14.4,22.24-2.13,16.37-11.05,28.21-25.5,35.92-5.39,2.87-11.32,2.8-17.09,1.73-6.39-1.18-12.29-8.53-13.03-15.52-.18-1.64-.03-3.32-.03-4.99Z"/>
  <path class="cls-5" d="M558.57,253.93c-11.49,1.24-19.42-7.78-18.54-18.75.26-3.2.66-6.3,2.1-9.16,6.12-12.16,15.34-20.34,29.17-22.51,14.48-2.27,25.17,9.92,20.79,23.94-4.17,13.35-12.95,22.19-26.6,25.92-.96.26-1.95.47-2.94.54-1.32.09-2.66.02-3.99.02Z"/>
  <path class="cls-4" d="M398.03,157.03c-.38-7.09,2.13-13.99,6.56-20.31,6.77-9.67,20.33-10.66,27.96-1.59,11.66,13.86,10.78,35.36-1.23,47.45-7.94,7.99-19.7,6.94-26.87-2.22-5.18-6.62-6.5-14.43-6.41-23.32Z"/>
</svg>